<?xml version="1.0" encoding="utf-8"?>
<!-- Generator: Adobe Illustrator 18.0.0, SVG Export Plug-In . SVG Version: 6.00 Build 0)  -->
<!DOCTYPE svg PUBLIC "-//W3C//DTD SVG 1.1//EN" "http://www.w3.org/Graphics/SVG/1.1/DTD/svg11.dtd">
<svg version="1.1" id="Layer_1" xmlns="http://www.w3.org/2000/svg" xmlns:xlink="http://www.w3.org/1999/xlink" x="0px" y="0px"
	 viewBox="0 252.9 600 97.4" enable-background="new 0 252.9 600 97.4" xml:space="preserve">
<g id="Layer_1_1_" display="none">
	<text transform="matrix(1 0 0 1 83.687 346.3164)" display="inline" font-family="'OpenSans-Light'" font-size="69.5115">z</text>
	<text transform="matrix(1 0 0 1 116.1055 346.3164)" display="inline" font-family="'OpenSans-Light'" font-size="69.5115">a</text>
	<text transform="matrix(1 0 0 1 153.0225 346.3164)" display="inline" font-family="'OpenSans-Light'" font-size="69.5115">b</text>
	<text transform="matrix(1 0 0 1 193.7578 346.3164)" display="inline" font-family="'OpenSans-Light'" font-size="69.5115">u</text>
	<text transform="matrix(1 0 0 1 235.1723 346.3164)" display="inline" font-family="'OpenSans-Light'" font-size="69.5115">r</text>
	<text transform="matrix(1 0 0 1 262.2442 346.3164)" display="inline" font-family="'OpenSans-Light'" font-size="69.5115">daev</text>
	<text transform="matrix(1 0 0 1 411.0986 346.3164)" display="inline" font-family="'OpenSans-Light'" font-size="69.5115">.</text>
	<text transform="matrix(1 0 0 1 427.9873 346.3164)" display="inline" font-family="'OpenSans-Light'" font-size="69.5115">ru</text>
</g>
<g id="Layer_3">
	<rect x="-0.2" y="252.9" fill="#9E162A" width="600" height="97.6"/>
</g>
<g id="Layer_4">
	
		<linearGradient id="SVGID_1_" gradientUnits="userSpaceOnUse" x1="56.8923" y1="507.0576" x2="31.112" y2="532.8381" gradientTransform="matrix(0.8487 0 0 -0.8487 0 758.6987)">
		<stop  offset="0" style="stop-color:#9E162A"/>
		<stop  offset="1" style="stop-color:#841225"/>
	</linearGradient>
	<polygon fill="url(#SVGID_1_)" points="73,304.2 69.3,309.5 64.5,316.5 61.7,320.6 56.4,328.5 41.2,350.5 26.7,350.5 9.8,338.8 
		9.8,338.6 46.1,285.7 46.4,285.9 	"/>
	
		<linearGradient id="SVGID_2_" gradientUnits="userSpaceOnUse" x1="121.4285" y1="514.3215" x2="96.7521" y2="538.9979" gradientTransform="matrix(0.8487 0 0 -0.8487 0 758.6987)">
		<stop  offset="0" style="stop-color:#9E162A"/>
		<stop  offset="1" style="stop-color:#841225"/>
	</linearGradient>
	<polygon fill="url(#SVGID_2_)" points="116.3,350.5 107.9,350.5 92.6,338.6 92.5,338.5 91.1,289 91.1,288.8 112.7,305.6 
		115.4,307.7 116,338.6 	"/>
	
		<linearGradient id="SVGID_3_" gradientUnits="userSpaceOnUse" x1="185.4768" y1="508.1232" x2="158.4199" y2="535.1801" gradientTransform="matrix(0.8487 0 0 -0.8487 0 758.6987)">
		<stop  offset="0" style="stop-color:#9E162A"/>
		<stop  offset="1" style="stop-color:#841225"/>
	</linearGradient>
	<path fill="url(#SVGID_3_)" d="M175.4,307.3l-0.4,27.2l-0.3,16.1h-18.2l-25-10.7l0.2-0.3v-0.1l1.4-4.2c0.6,0.1,1.3,0.1,1.9,0.1
		c5.8,0,10.1-2,13.1-6c3-4,4.4-9.8,4.4-17.2c0-4.6-0.5-8.5-1.6-11.7c-0.8-2.5-2-4.6-3.4-6.3l1.8-5V289l21.5,15.2L175.4,307.3z"/>
	
		<linearGradient id="SVGID_4_" gradientUnits="userSpaceOnUse" x1="262.0846" y1="517.4154" x2="236.8161" y2="542.6839" gradientTransform="matrix(0.8487 0 0 -0.8487 0 758.6987)">
		<stop  offset="0" style="stop-color:#9E162A"/>
		<stop  offset="1" style="stop-color:#841225"/>
	</linearGradient>
	<polygon fill="url(#SVGID_4_)" points="235.9,350.5 227.4,350.5 212.8,338.8 212.8,338.6 212.6,285.7 212.7,285.8 230.9,300.3 
		235.1,303.6 235.8,304.2 235.8,306.1 235.9,338.7 	"/>
	
		<linearGradient id="SVGID_5_" gradientUnits="userSpaceOnUse" x1="368.0673" y1="538.7327" x2="348.173" y2="558.6268" gradientTransform="matrix(0.8487 0 0 -0.8487 0 758.6987)">
		<stop  offset="0" style="stop-color:#9E162A"/>
		<stop  offset="1" style="stop-color:#841225"/>
	</linearGradient>
	<polygon fill="url(#SVGID_5_)" points="330.6,281.3 330.8,288.8 330.8,289.2 330.6,313.4 330.4,323.1 330.4,326.3 330.3,336.3 
		330.2,350.5 323.1,350.5 311.3,338.9 311.3,338.6 311.5,267 311.5,262.9 	"/>
	
		<linearGradient id="SVGID_6_" gradientUnits="userSpaceOnUse" x1="438.0718" y1="512.2281" x2="410.8615" y2="539.4385" gradientTransform="matrix(0.8487 0 0 -0.8487 0 758.6987)">
		<stop  offset="0" style="stop-color:#9E162A"/>
		<stop  offset="1" style="stop-color:#841225"/>
	</linearGradient>
	<polygon fill="url(#SVGID_6_)" points="385.1,350.5 376.6,350.5 361.4,338.8 361.4,338.6 360,289.1 361.1,290 379,307 380.8,308.4 
		383.4,310.4 384.4,313.2 384.5,317.6 384.8,331.6 	"/>
	
		<linearGradient id="SVGID_7_" gradientUnits="userSpaceOnUse" x1="567.0673" y1="510.2327" x2="540.2987" y2="537.0014" gradientTransform="matrix(0.8487 0 0 -0.8487 0 758.6987)">
		<stop  offset="0" style="stop-color:#9E162A"/>
		<stop  offset="1" style="stop-color:#841225"/>
	</linearGradient>
	<polygon fill="url(#SVGID_7_)" points="501,304.3 488.9,335.1 486.3,342 483,350.5 470.2,350.5 453.4,339 453.5,338.6 458.7,325.4 
		474.1,285.8 	"/>
	
		<linearGradient id="SVGID_8_" gradientUnits="userSpaceOnUse" x1="700.709" y1="519.041" x2="679.2579" y2="540.4922" gradientTransform="matrix(0.8487 0 0 -0.8487 0 758.6987)">
		<stop  offset="0" style="stop-color:#9E162A"/>
		<stop  offset="1" style="stop-color:#841225"/>
	</linearGradient>
	<polygon fill="url(#SVGID_8_)" points="599.8,295.5 599.8,348.5 587.4,338.8 587.1,285.7 587.1,285.7 	"/>
	
		<linearGradient id="SVGID_9_" gradientUnits="userSpaceOnUse" x1="498.3109" y1="505.2263" x2="461.6686" y2="541.8686" gradientTransform="matrix(0.8487 0 0 -0.8487 0 758.6987)">
		<stop  offset="0" style="stop-color:#9E162A"/>
		<stop  offset="1" style="stop-color:#841225"/>
	</linearGradient>
	<path fill="url(#SVGID_9_)" d="M440.1,307.1l-2.3,3.4l-17.7,25.7v0.1l-9.6,14l-21.1-14.4l-0.6-0.4c-1.2-0.8-2.3-1.8-3.3-2.9
		c-4.3-4.8-6.4-11.4-6.4-19.9c0-1.1,0-2.2,0.1-3.2l8.5-12.4l1.4-2.1l6.4-9.3l4.8,0.2h8.6l8.1,5.6l18.3,12.5L440.1,307.1z"/>
	
		<linearGradient id="SVGID_10_" gradientUnits="userSpaceOnUse" x1="588.3923" y1="484.3077" x2="569.7334" y2="502.9666" gradientTransform="matrix(0.8487 0 0 -0.8487 0 758.6987)">
		<stop  offset="0" style="stop-color:#9E162A"/>
		<stop  offset="1" style="stop-color:#841225"/>
	</linearGradient>
	<path fill="url(#SVGID_10_)" d="M511.3,350.5h-12.9l-12.1-8.5l-5-3.5l0,0l-0.8-0.5l4-5.9l0.8,0.5l0,0l3.6,2.5L511.3,350.5z"/>
	
		<linearGradient id="SVGID_11_" gradientUnits="userSpaceOnUse" x1="304.9006" y1="514.3994" x2="275.8012" y2="543.4988" gradientTransform="matrix(0.8487 0 0 -0.8487 0 758.6987)">
		<stop  offset="0" style="stop-color:#9E162A"/>
		<stop  offset="1" style="stop-color:#841225"/>
	</linearGradient>
	<polygon fill="url(#SVGID_11_)" points="271.4,295 271.4,350.5 254.1,350.5 236,339.2 235.8,339 235.8,338.6 235.2,303.6 
		235,285.7 235.2,296.1 245.9,285.6 258.8,285.4 258.9,285.6 270.7,294.5 	"/>
	
		<linearGradient id="SVGID_12_" gradientUnits="userSpaceOnUse" x1="630.9006" y1="514.3994" x2="601.8011" y2="543.4988" gradientTransform="matrix(0.8487 0 0 -0.8487 0 758.6987)">
		<stop  offset="0" style="stop-color:#9E162A"/>
		<stop  offset="1" style="stop-color:#841225"/>
	</linearGradient>
	<polygon fill="url(#SVGID_12_)" points="548.1,295 548.1,350.5 530.7,350.5 512.7,339.2 512.4,339 512.4,338.6 511.9,303.6 
		511.7,285.7 511.8,296.1 522.5,285.6 535.4,285.4 535.6,285.6 547.4,294.5 	"/>
</g>
<g id="Layer_1_copy">
	<path fill="#FFFFFF" d="M46.5,338.6H8.7v-3.1L40.1,290H11v-4.2h35.4v3.1l-31.7,45.6h31.7L46.5,338.6L46.5,338.6z"/>
	<path fill="#FFFFFF" d="M92.2,338.6l-1.2-8.4h-0.4c-2.6,3.4-5.4,5.9-8.2,7.2c-2.8,1.4-6.1,2.1-9.9,2.1c-5.2,0-9.3-1.4-12.1-4
		s-4.3-6.4-4.3-11c0-5.2,2.1-9.2,6.4-12.1c4.3-2.9,10.5-4.3,18.7-4.5l10.1-0.3v-3.5c0-5-1-8.8-3.1-11.4c-2-2.5-5.3-3.8-9.8-3.8
		c-4.9,0-10,1.4-15.3,4.1l-1.8-4.2c5.8-2.7,11.5-4.1,17.2-4.1c5.8,0,10.2,1.5,13,4.5c2.9,3.1,4.3,7.7,4.3,14.1v35.1H92.2z
		 M72.6,335.2c5.7,0,10.1-1.6,13.3-4.8c3.2-3.2,4.9-7.7,4.9-13.5v-5.2l-9.3,0.4c-7.5,0.3-12.7,1.5-15.9,3.5c-3.1,2-4.8,5-4.8,9.2
		c0,3.3,1,5.9,3.1,7.7C66.1,334.3,69,335.2,72.6,335.2z"/>
	<path fill="#FFFFFF" d="M152.1,291.7c-0.8-1-1.7-2-2.7-2.7c-3.6-2.9-8.2-4.2-14-4.2c-4,0-7.4,0.6-10.3,2.1
		c-2.8,1.5-5.3,4.3-7.3,6.9h-0.3l0.1-4c0.2-2.4,0.2-4.9,0.2-7.7v-18.9h-5.1v75.5h3.3l1.4-7.6h0.4c1.8,2.5,4.2,4.9,7.1,6.4
		c2.1,1.1,4.4,1.7,6.9,2c1.1,0.2,2.2,0.2,3.3,0.2c7.1,0,12.6-2.4,16.6-7.2c3.9-4.8,5.9-11.5,5.9-20.4
		C157.8,303.1,155.8,296.4,152.1,291.7z M148.3,329.3c-2.9,4.1-7.3,6-13.1,6c-0.7,0-1.3,0-1.9-0.1c-5-0.3-8.7-2-11.2-5.1
		c-2.8-3.5-4.2-9.2-4.2-17.2v-0.8c0-8.2,1.4-14.1,4.1-17.7s7.1-5.3,13.4-5.3c5.3,0,9.5,1.6,12.3,4.9c3.3,3.8,5,9.8,5,18
		C152.6,319.4,151.1,325.2,148.3,329.3z"/>
	<path fill="#FFFFFF" d="M175.7,285.7v34.2c0,5.3,1.1,9.2,3.4,11.6c2.2,2.4,5.7,3.6,10.4,3.6c6.3,0,10.9-1.6,13.9-4.8
		c3-3.1,4.4-8.3,4.4-15.5v-29.2h4.8v52.9h-4.1l-0.8-7.3h-0.3c-3.5,5.5-9.6,8.3-18.3,8.3c-12.1,0-18.1-6.4-18.1-19.3v-34.5H175.7z"/>
	<path fill="#FFFFFF" d="M251.7,284.7c2.2,0,4.7,0.3,7.2,0.7L258,290c-2.2-0.5-4.5-0.8-6.9-0.8c-4.5,0-8.2,2-11.1,5.8
		c-2.9,3.8-4.3,8.7-4.3,14.5v29.2h-4.8v-52.9h4.1l0.5,9.5h0.3c2.2-3.9,4.5-6.6,7-8.2C245.2,285.5,248.2,284.7,251.7,284.7z"/>
	<path fill="#FFFFFF" d="M289.1,284.7c3.8,0,7.1,0.7,9.9,2.1c2.8,1.4,5.3,3.8,7.5,7.1h0.3c-0.2-4.1-0.3-8.1-0.3-12.1v-19h4.8v75.7
		h-3.1l-1.2-8.1h-0.4c-4,6-9.8,9.1-17.3,9.1c-7.3,0-12.9-2.3-16.7-6.8c-3.9-4.6-5.8-11.2-5.8-19.9c0-9.2,2-16.1,5.8-21
		C276.2,287.1,281.8,284.7,289.1,284.7z M289.1,289.1c-5.8,0-10.1,2-13,6.1c-2.9,4.1-4.3,9.9-4.3,17.7c0,15,5.9,22.5,17.5,22.5
		c5.9,0,10.4-1.7,13.2-5.2s4.2-9.2,4.2-17.1v-0.8c0-8.1-1.4-14.1-4.1-17.7C299.6,290.8,295.2,289.1,289.1,289.1z"/>
	<path fill="#FFFFFF" d="M361.4,338.6l-1.2-8.4h-0.4c-2.6,3.4-5.4,5.9-8.2,7.2c-2.8,1.4-6.1,2.1-9.9,2.1c-5.2,0-9.3-1.4-12.1-4
		c-2.9-2.6-4.3-6.4-4.3-11c0-5.2,2.1-9.2,6.4-12.1c4.3-2.9,10.5-4.3,18.7-4.5l10.1-0.3v-3.5c0-5-1-8.8-3.1-11.4s-5.3-3.8-9.8-3.8
		c-4.9,0-10,1.4-15.3,4.1l-1.8-4.2c5.8-2.7,11.5-4.1,17.2-4.1c5.8,0,10.2,1.5,13,4.5c2.9,3.1,4.3,7.7,4.3,14.1v35.1H361.4z
		 M341.8,335.2c5.7,0,10.1-1.6,13.3-4.8c3.2-3.2,4.9-7.7,4.9-13.5v-5.2l-9.3,0.4c-7.5,0.3-12.7,1.5-15.9,3.5s-4.8,5-4.8,9.2
		c0,3.3,1,5.9,3.1,7.7C335.3,334.3,338.2,335.2,341.8,335.2z"/>
	<path fill="#FFFFFF" d="M422.5,308.9c0-7.5-1.9-13.3-5.4-17.7h-0.1c-2.2-2.6-4.9-4.5-8.1-5.5c-2-0.7-4.2-1-6.7-1
		c-2.4,0-4.6,0.3-6.6,0.8c-4.1,1.1-7.4,3.4-10.2,6.8c-3.6,4.4-5.7,10.1-6.1,17.1c-0.1,1-0.1,2.1-0.1,3.2c0,8.6,2.1,15.2,6.4,19.9
		c1,1.1,2.1,2,3.3,2.9l0.6,0.4c3.8,2.5,8.5,3.8,14.1,3.8c3.1,0,5.9-0.3,8.4-0.7c2.5-0.4,5.1-1.4,8.1-2.6h-0.1v-4.6
		c-3.4,1.4-6.3,2.3-8.6,2.7c-2.3,0.4-4.8,0.7-7.9,0.7c-6.2,0-10.9-1.8-14.3-5.6c-3.3-3.8-4.9-9.7-5-16.5h38.3L422.5,308.9
		L422.5,308.9z M384.5,308.9c0.4-5.1,1.4-8.7,3.2-11.7c0.4-0.8,0.9-1.5,1.4-2.2c0.3-0.3,0.5-0.6,0.7-0.9c3.1-3.4,7.2-5.1,12.3-5.1
		c4.7,0,8.4,1.9,11,5.3c2.6,3.5,4,7.8,4,14.6H384.5z"/>
	<path fill="#FFFFFF" d="M448.7,338.6l-20.5-52.9h4.9l13.7,36c1.8,4.6,3.1,8.7,4.1,12.1h0.3c1.4-4.4,2.7-8.5,4.1-12.1l13.7-35.9h5
		l-20.3,52.9H448.7z"/>
	<path fill="#FFFFFF" d="M528.1,284.7c2.2,0,4.7,0.3,7.2,0.7l-0.9,4.6c-2.2-0.5-4.5-0.8-6.9-0.8c-4.5,0-8.2,2-11.1,5.8
		c-2.9,3.8-4.3,8.7-4.3,14.5v29.2h-4.8v-52.9h4.1l0.5,9.5h0.3c2.2-3.9,4.5-6.6,7-8.2C521.6,285.5,524.6,284.7,528.1,284.7z"/>
	<path fill="#FFFFFF" d="M550.4,285.7v34.2c0,5.3,1.1,9.2,3.4,11.6c2.2,2.4,5.7,3.6,10.4,3.6c6.3,0,10.9-1.6,13.9-4.8
		c3-3.1,4.4-8.3,4.4-15.5v-29.2h4.8v52.9h-4.1l-0.8-7.3h-0.3c-3.5,5.5-9.6,8.3-18.3,8.3c-12.1,0-18.1-6.4-18.1-19.3v-34.5H550.4z"/>
	<circle fill="#FFFFFF" cx="482.7" cy="335.2" r="3.6"/>
</g>
<g id="Layer_5">
	<rect y="252.9" fill="#841225" width="599.8" height="9.6"/>
</g>
</svg>
